<svg width="16" height="10" viewBox="0 0 16 10" fill="none" xmlns="http://www.w3.org/2000/svg">
<path d="M2.5 1.75C2.5 2.16421 2.16421 2.5 1.75 2.5C1.33579 2.5 1 2.16421 1 1.75C1 1.33579 1.33579 1 1.75 1C2.16421 1 2.5 1.33579 2.5 1.75Z" stroke="black" stroke-width="1.5" stroke-linecap="round" stroke-linejoin="round"/>
<path d="M8.5 1.75C8.5 2.16421 8.16421 2.5 7.75 2.5C7.33579 2.5 7 2.16421 7 1.75C7 1.33579 7.33579 1 7.75 1C8.16421 1 8.5 1.33579 8.5 1.75Z" stroke="black" stroke-width="1.5" stroke-linecap="round" stroke-linejoin="round"/>
<path d="M14.5 1.75C14.5 2.16421 14.1642 2.5 13.75 2.5C13.3358 2.5 13 2.16421 13 1.75C13 1.33579 13.3358 1 13.75 1C14.1642 1 14.5 1.33579 14.5 1.75Z" stroke="black" stroke-width="1.5" stroke-linecap="round" stroke-linejoin="round"/>
<path d="M2.5 7.75C2.5 8.16421 2.16421 8.5 1.75 8.5C1.33579 8.5 1 8.16421 1 7.75C1 7.33579 1.33579 7 1.75 7C2.16421 7 2.5 7.33579 2.5 7.75Z" stroke="black" stroke-width="1.5" stroke-linecap="round" stroke-linejoin="round"/>
<path d="M8.5 7.75C8.5 8.16421 8.16421 8.5 7.75 8.5C7.33579 8.5 7 8.16421 7 7.75C7 7.33579 7.33579 7 7.75 7C8.16421 7 8.5 7.33579 8.5 7.75Z" stroke="black" stroke-width="1.5" stroke-linecap="round" stroke-linejoin="round"/>
<path d="M14.5 7.75C14.5 8.16421 14.1642 8.5 13.75 8.5C13.3358 8.5 13 8.16421 13 7.75C13 7.33579 13.3358 7 13.75 7C14.1642 7 14.5 7.33579 14.5 7.75Z" stroke="black" stroke-width="1.5" stroke-linecap="round" stroke-linejoin="round"/>
</svg>
