<svg width="12" height="12" viewBox="0 0 12 12" fill="none" xmlns="http://www.w3.org/2000/svg">
<path d="M5.75 10.875C2.925 10.875 0.625 8.575 0.625 5.75C0.625 2.925 2.925 0.625 5.75 0.625C8.575 0.625 10.875 2.925 10.875 5.75C10.875 8.575 8.575 10.875 5.75 10.875ZM5.75 1.375C3.335 1.375 1.375 3.34 1.375 5.75C1.375 8.16 3.335 10.125 5.75 10.125C8.165 10.125 10.125 8.16 10.125 5.75C10.125 3.34 8.165 1.375 5.75 1.375Z" fill="#292D32"/>
<path d="M11 11.375C10.905 11.375 10.81 11.34 10.735 11.265L9.73497 10.265C9.58997 10.12 9.58997 9.88 9.73497 9.735C9.87997 9.59 10.12 9.59 10.265 9.735L11.265 10.735C11.41 10.88 11.41 11.12 11.265 11.265C11.19 11.34 11.095 11.375 11 11.375Z" fill="#292D32"/>
</svg>
