<svg width="34" height="34" viewBox="0 0 34 34" fill="none" xmlns="http://www.w3.org/2000/svg">
<path d="M29.75 11.8542H4.25C3.66917 11.8542 3.1875 11.1742 3.1875 10.3542C3.1875 9.53417 3.66917 8.85417 4.25 8.85417H29.75C30.3308 8.85417 30.8125 9.53417 30.8125 10.3542C30.8125 11.1742 30.3308 11.8542 29.75 11.8542Z" fill="#F4EFFD"/>
<path d="M25.5 18.9375H8.5C7.91917 18.9375 7.4375 18.2575 7.4375 17.4375C7.4375 16.6175 7.91917 15.9375 8.5 15.9375H25.5C26.0808 15.9375 26.5625 16.6175 26.5625 17.4375C26.5625 18.2575 26.0808 18.9375 25.5 18.9375Z" fill="#F4EFFD"/>
<path d="M19.8334 26.0208H14.1667C13.5859 26.0208 13.1042 25.3408 13.1042 24.5208C13.1042 23.7008 13.5859 23.0208 14.1667 23.0208H19.8334C20.4142 23.0208 20.8959 23.7008 20.8959 24.5208C20.8959 25.3408 20.4142 26.0208 19.8334 26.0208Z" fill="#F4EFFD"/>
</svg>
