<svg width="22" height="22" viewBox="0 0 22 22" fill="none" xmlns="http://www.w3.org/2000/svg">
<path d="M14.8409 1.83333H7.15921C3.82254 1.83333 1.83337 3.8225 1.83337 7.15917V14.8408C1.83337 17.4167 3.01587 19.1858 5.09671 19.855C5.70171 20.0658 6.39837 20.1667 7.15921 20.1667H14.8409C15.6017 20.1667 16.2984 20.0658 16.9034 19.855C18.9842 19.1858 20.1667 17.4167 20.1667 14.8408V7.15917C20.1667 3.8225 18.1775 1.83333 14.8409 1.83333ZM18.7917 14.8408C18.7917 16.8025 18.0217 18.04 16.4725 18.5533C15.5834 16.8025 13.475 15.5558 11 15.5558C8.52504 15.5558 6.42587 16.7933 5.52754 18.5533H5.51837C3.98754 18.0583 3.20837 16.8117 3.20837 14.85V7.15917C3.20837 4.57417 4.57421 3.20833 7.15921 3.20833H14.8409C17.4259 3.20833 18.7917 4.57417 18.7917 7.15917V14.8408Z" fill="white"/>
<path d="M11.0001 7.33333C9.18505 7.33333 7.71838 8.8 7.71838 10.615C7.71838 12.43 9.18505 13.9058 11.0001 13.9058C12.815 13.9058 14.2817 12.43 14.2817 10.615C14.2817 8.8 12.815 7.33333 11.0001 7.33333Z" fill="white"/>
</svg>
